# xmcd
#
# Track frame offsets: 
#        150
#        17700
#        37420
#        53750
#        71625
#        88975
#        109895
#        121855
#        137375
#        149150
#
# Disc length: 2231 seconds
#
# Revision: 8
# Processed by: cddbd v1.5.2PL0 Copyright (c) Steve Scherf et al.
# Submitted via: ExactAudioCopy v1.0b1
#
DISCID=9708b50a
DTITLE=Willie Nelson - Stardust
DYEAR=1978
DGENRE=Country
TTITLE0=Stardust
TTITLE1=Georgia on My Mind
TTITLE2=Blue Skies
TTITLE3=All of Me
TTITLE4=Unchained Melody
TTITLE5=September Song
TTITLE6=On the Sunny Side of the Street
TTITLE7=Moonlight in Vermont
TTITLE8=Don't Get Around Much Anymore
TTITLE9=Someone to Watch Over Me
EXTD=LABEL =CBS Inc.\nID =CK35305\nUPC =07464-35305-2\nCOPYRIGHT =
EXTD=1978
EXTT0=
EXTT1=
EXTT2=
EXTT3=
EXTT4=
EXTT5=
EXTT6=
EXTT7=
EXTT8=
EXTT9=
PLAYORDER=
